<svg width="117" height="50" viewBox="0 0 117 50" fill="none" xmlns="http://www.w3.org/2000/svg">
<g clip-path="url(#clip0_140_54)">
<path d="M0 0.0282593V46.0452H20.7345V44.0678H1.9774V2.00566H114.124V44.0678H95.1977V46.0452H116.102V0.0282593H0Z" fill="white"/>
<path d="M31.2712 49.5198V45.7627H26.4689V49.5198H24.8023V40.565H26.4689V44.2655H31.2712V40.565H32.9379V49.5198H31.2712Z" fill="white"/>
<path d="M45.8192 45.0283C45.9039 47.6554 43.8418 49.8588 41.2147 49.9435C38.5876 50.0283 36.3842 47.9661 36.2994 45.339C36.2147 42.7119 38.2768 40.5085 40.9039 40.4237C40.9604 40.4237 41.0169 40.4237 41.0452 40.4237C43.6441 40.3955 45.7627 42.4576 45.8192 45.0283ZM38.0508 45.0283C38.0508 46.6949 39.4068 48.0509 41.1017 48.0509C42.7684 48.0509 44.1243 46.6949 44.1243 45C44.1243 43.3051 42.7684 41.9774 41.0734 41.9774C39.4068 41.9774 38.0791 43.3051 38.0508 44.9718C38.0226 45 38.0226 45.0283 38.0508 45.0283Z" fill="white"/>
<path d="M55.452 49.5198L50.7627 43.2486V49.5198H49.1243V40.565H50.8757L55.565 46.8362V40.565H57.2034V49.5198H55.452Z" fill="white"/>
<path d="M70 45.0283C70.0847 47.6554 68.0226 49.8588 65.3955 49.9435C62.7684 50.0283 60.565 47.9661 60.4802 45.339C60.3955 42.7119 62.4576 40.5085 65.0847 40.4237C65.1412 40.4237 65.1977 40.4237 65.226 40.4237C67.8249 40.3955 69.9435 42.4576 70 45.0283ZM62.2034 45.0283C62.2034 46.6949 63.5876 48.0509 65.2542 48.0226C66.9209 48.0226 68.2768 46.6384 68.2486 44.9718C68.2486 43.3051 66.8927 41.9774 65.226 41.9774C63.5593 41.9209 62.1751 43.2486 62.1469 44.887C62.1469 44.9435 62.1469 44.9718 62.1469 45.0283H62.2034Z" fill="white"/>
<path d="M77.2599 40.565C80.0282 40.565 81.1299 41.4407 81.1299 43.5028C81.2994 44.774 80.452 45.9605 79.1808 46.2147L81.4124 49.5198H79.4915L77.4011 46.4407H76.8362H75.0565V49.5198H73.3616V40.565H77.2599ZM75.0565 45.1412H77.4011C78.8983 45.1412 79.4633 44.6893 79.4633 43.5876C79.4633 42.4859 78.8983 42.0339 77.4011 42.0339H75.0565V45.1412Z" fill="white"/>
<path d="M91.2994 41.3842L90.5932 42.6836C89.6328 42.1469 88.5593 41.8644 87.4576 41.8362C86.6384 41.8362 85.9322 42.1751 85.9322 42.9379C85.9322 43.4181 86.2147 43.6723 87.8814 44.1243C90.0847 44.7175 91.5537 45.113 91.5537 46.9492C91.5537 48.7853 90.0565 49.661 87.9378 49.661C86.4689 49.6893 85 49.2655 83.7571 48.4746L84.4633 47.2034C85.565 47.8531 86.8079 48.1921 88.0791 48.1921C88.983 48.1921 89.7458 47.8531 89.7458 47.0904C89.7458 46.3277 89.1525 46.0734 87.4011 45.6215C85.3107 45.0847 84.1525 44.6045 84.1525 43.1073C84.1525 41.2429 85.7345 40.3955 87.6836 40.3955C88.9265 40.4237 90.1695 40.7627 91.2994 41.3842Z" fill="white"/>
<path d="M30.9605 11.3277V31.8362L32.5706 32.0622V33.2768H24.6045V32.0622L26.3277 31.8362V22.5141H16.1582V31.8362L17.7119 32.0622V33.2768H9.88701V32.0622L11.4689 31.8362V11.3277L9.88701 11.13V9.94351H17.7119V11.13L16.1582 11.3277V20.113H26.3277V11.3277L24.6045 11.13V9.94351H32.5706V11.13L30.9605 11.3277Z" fill="white"/>
<path d="M41.8362 32.0056L43.3333 32.2034V33.2768H36.017V32.2034L37.5141 32.0056V17.9661L36.017 17.7401V16.6667H41.8362V32.0056Z" fill="white"/>
<path d="M46.4972 32.2316L47.9661 32.0339V11.1865L46.4972 10.9887V9.94351H52.3446V32.0339L53.8418 32.2316V33.2768H46.4972V32.2316Z" fill="white"/>
<path d="M62.7401 16.6667H66.6667V18.2203H62.7401V28.1073C62.7401 30.6497 63.2768 31.4689 65.5932 31.4689C66.3842 31.4972 67.1751 31.4407 67.9378 31.2994V32.4859C66.2147 33.1356 64.3785 33.5028 62.5424 33.5593C59.1808 33.5593 58.3898 32.0339 58.3898 29.1243V18.2486H55.2825V16.6667H58.4746V13.1356L62.7401 11.8644V16.6667Z" fill="white"/>
<path d="M86.3559 25.1412C86.3559 30.3107 82.8249 33.7853 77.3446 33.7853C72.0339 33.7853 68.6441 31.5254 68.6441 25.1412C68.6441 19.8023 72.1751 16.2147 77.6554 16.2147C83.1356 16.2147 86.3559 19.435 86.3559 25.1412ZM81.5537 25.0283C81.5537 19.774 79.9718 17.4859 77.4576 17.4859C74.9435 17.4859 73.4181 19.6893 73.4181 25.0283C73.4181 30.3672 75 32.4859 77.4576 32.4859C80.113 32.4859 81.5537 30.3955 81.5537 25.0283Z" fill="white"/>
<path d="M106.215 32.2034V33.2486H98.8983V32.2034L100.367 32.0057V22.5424C100.367 19.9435 99.4068 18.7853 97.3446 18.7853C96.0734 18.9266 94.8588 19.4068 93.8136 20.1695V32.0057L95.3107 32.2034V33.2486H88.0508V32.2034L89.548 32.0057V18.0509L88.0508 17.8531V16.6667H93.9266V19.0113C95.7345 17.5706 97.4576 16.3842 99.9717 16.3842C103.249 16.3842 104.718 18.3051 104.718 22.0622V32.0339L106.215 32.2034Z" fill="white"/>
<path d="M42.0339 12.2881C42.0339 13.5876 40.9887 14.6328 39.6893 14.6328C38.3898 14.6328 37.3446 13.5876 37.3446 12.2881C37.3446 10.9887 38.3898 9.94351 39.6893 9.94351C40.9887 9.94351 42.0339 10.9887 42.0339 12.2881Z" fill="white"/>
</g>
<defs>
<clipPath id="clip0_140_54">
<rect width="116.102" height="50" fill="white"/>
</clipPath>
</defs>
</svg>
