<svg width="421" height="215" viewBox="0 0 421 215" fill="none" xmlns="http://www.w3.org/2000/svg">
<g clip-path="url(#clip0_258_55)">
<path d="M191.337 210.31C184.959 210.427 184.637 208.789 184.55 203.026L184.242 185.121C184.184 181.566 184.286 178.289 184.623 174.72C183.043 174.808 181.858 174.822 180.381 174.852C179.137 174.866 177.733 174.896 176.255 174.866C177.148 177.28 177.499 181.347 177.572 185.179L177.894 203.421C177.967 207.941 177.806 211.042 177.352 214.158C178.42 214.084 180.293 213.997 182.268 213.953C186.159 213.88 195.433 213.836 200.626 213.967C200.933 211.934 201.401 209.433 201.972 207.341L201.123 206.902C198.739 209.711 194.965 210.237 191.352 210.296L191.337 210.31Z" fill="#A39383"/>
<path d="M219.716 210.31C213.733 210.413 213.031 208.965 212.943 204.152L212.782 194.892L217.185 194.819C219.672 194.775 221.764 194.848 224.704 195.082C225.07 193.722 225.611 192.069 226.211 190.767L225.757 190.387C223.11 190.709 220.798 190.928 217.975 190.972L212.782 191.06L212.68 184.843C212.636 182.473 212.709 179.811 212.797 178.231C214.377 178.084 215.737 178.011 216.688 177.997C219.847 177.938 223.124 178.172 225.099 180.557L225.889 180.425C226.299 178.216 226.942 176.227 227.644 174.354C224.09 174.53 222.232 174.618 219.058 174.676L208.613 174.866C207.648 174.881 206.126 174.91 204.663 174.866C205.614 177.28 205.907 181.347 205.98 185.179L206.302 203.421C206.375 207.765 206.097 211.334 205.702 214.172C207.955 214.07 210.559 213.967 214.625 213.909C218.75 213.836 223.387 213.865 229.151 213.997C229.458 211.905 229.926 209.52 230.453 207.414L229.605 207.092C226.767 209.915 223.329 210.252 219.774 210.31H219.716Z" fill="#A39383"/>
<path d="M286.303 203.859L276.663 179.109C275.713 176.636 275.244 175.291 274.923 173.374C272.948 173.798 269.803 174.252 268.164 174.398C267.594 177.002 267.214 178.143 265.912 181.493L256.988 204.649C256.125 206.961 255.204 209.316 253.405 209.784C251.605 210.252 250.611 210.281 248.987 210.311C242.609 210.428 242.287 208.789 242.199 203.026L241.892 185.121C241.834 181.566 241.936 178.289 242.272 174.72C240.693 174.808 239.508 174.822 238.03 174.852C236.787 174.866 235.383 174.896 233.905 174.866C234.797 177.28 235.149 181.347 235.222 185.179L235.544 203.421C235.617 207.941 235.456 211.042 235.002 214.158C236.07 214.085 237.943 213.997 239.917 213.953C243.092 213.894 249.806 213.851 254.999 213.909C255.145 213.953 259.665 214.128 260.909 214.158C260.66 213.207 260.543 212.358 260.529 211.452C260.499 209.594 260.909 207.721 261.231 206.697L263.483 200.042C265.575 199.954 268.062 199.851 270.49 199.807C272.919 199.764 275.288 199.778 277.439 199.807L279.282 205.03C280.467 208.233 281.14 210.705 281.579 213.865C283.275 213.719 284.797 213.646 286.552 213.602C288.073 213.573 289.887 213.543 291.014 213.631C289.96 211.846 288.161 208.482 286.318 203.83L286.303 203.859ZM270.417 196.341C268.442 196.37 266.468 196.414 264.712 196.341L270.476 179.972L276.122 196.15C274.323 196.297 272.392 196.326 270.417 196.37V196.341Z" fill="#A39383"/>
<path d="M144.6 196.867C143.678 196.838 142.654 196.823 141.616 196.823C140.577 196.823 139.495 196.852 138.602 196.867L137.578 199.72C137.432 200.158 137.242 200.963 137.242 201.768C137.242 202.163 137.286 202.528 137.388 202.938C136.862 202.909 136.32 202.894 135.779 202.894C135.194 202.894 134.594 202.923 133.98 202.938L133.892 202.762C134.55 201.563 135.209 200.275 135.779 198.783L139.787 188.851C140.372 187.417 140.533 186.92 140.811 185.808C141.513 185.764 142.874 185.589 143.722 185.413C143.839 186.247 144.044 186.832 144.424 187.9L148.389 198.652C149.135 200.67 149.895 202.133 150.334 202.923C149.851 202.879 149.076 202.879 148.418 202.879C147.672 202.879 147.014 202.909 146.282 202.952C146.107 201.592 145.843 200.51 145.361 199.12L144.615 196.852L144.6 196.867ZM141.762 188.236L139.158 195.258C139.904 195.302 140.767 195.302 141.616 195.302C142.464 195.302 143.298 195.302 144.073 195.258L141.762 188.236Z" fill="#A39383"/>
<path d="M156.361 202.894C155.659 202.894 154.927 202.923 154.459 202.938C154.723 201.578 154.825 200.188 154.825 198.301V190.343C154.825 189.436 154.796 188.339 154.752 187.388H153.362C151.826 187.388 150.232 187.535 149.076 188.661L148.71 188.588L149.076 185.925C150.905 185.955 152.207 185.999 153.421 185.999H158.833C160.369 185.999 161.335 185.969 163.982 185.896C163.719 186.73 163.47 187.652 163.295 188.559L162.929 188.588C161.964 187.461 160.354 187.388 158.775 187.388H157.809C157.736 188.31 157.707 189.436 157.707 190.416V198.316C157.707 200.539 157.853 201.929 158.146 202.923C157.707 202.894 157.005 202.88 156.317 202.88L156.361 202.894Z" fill="#A39383"/>
<path d="M167.347 212.768H130.571V214.172H167.347V212.768Z" fill="#A39383"/>
<path d="M167.347 174.72H130.571V176.124H167.347V174.72Z" fill="#A39383"/>
<path d="M62.9159 91.9531C45.245 110.151 29.0515 128.626 7.37252 154.591C6.43631 155.791 5.36845 156.873 4.5639 156.873C2.01859 156.873 0.0145264 152.192 0.0145264 148.711C0.0145264 147.379 0.277834 146.575 0.819078 145.77C36.5558 104.27 63.1938 73.7556 115.797 27.5743C116.192 27.1793 117.406 26.2431 118.064 26.2431C119.805 26.2431 122.087 29.0518 122.087 31.8604C122.087 33.3378 121.692 34.5373 120.478 35.6052C100.671 54.6219 85.0045 69.6012 70.6834 84.2001C102.807 74.5601 157.151 51.8133 157.151 24.7657C157.151 15.2574 148.184 8.96722 134.667 8.96722C108.965 8.96722 80.1918 19.6751 60.2389 32.6649C59.8439 32.9282 58.2348 34.0107 58.2348 34.4057C58.2348 34.8006 59.171 35.6052 59.171 36.6731C59.171 37.2143 58.7761 38.0189 57.5619 38.8088C51.0085 43.3582 41.3685 47.103 38.1503 47.103C35.21 47.103 34.2738 44.426 34.2738 43.2119C34.2738 29.0518 90.7533 0.00012207 132.78 0.00012207C152.587 0.00012207 166.908 8.96722 166.908 22.8933C166.908 63.7206 76.0227 95.0396 67.5969 95.0396C66.3974 95.0396 64.1154 93.5622 62.9159 91.9677V91.9531Z" fill="#A39383"/>
<path d="M56.2162 139.612C56.2162 123.419 79.1094 107.488 95.6978 107.488C101.856 107.488 105.601 110.97 106.801 115.124L111.218 110.97C114.159 108.556 114.7 107.898 115.373 107.898C117.245 107.898 119.249 110.575 119.249 114.056C119.249 114.861 118.854 115.666 117.772 116.733C115.768 118.738 112.549 121.414 108.805 124.501C104.255 128.377 98.6381 133.336 98.6381 138.427C98.6381 140.841 99.9839 141.499 101.856 141.499C110.019 141.499 130.103 123.696 132.78 121.283C133.717 120.478 134.111 120.347 134.521 120.347C136.13 120.347 138.266 122.629 138.266 124.501C138.266 124.896 138.134 125.569 137.198 126.373C134.653 128.655 112.564 150.071 99.0477 150.071C92.8892 150.071 89.4077 146.999 89.4077 142.976C89.4077 141.104 89.8026 139.232 90.6072 137.359C82.9713 143.781 74.0042 150.071 65.4467 150.071C59.2882 150.071 56.2162 146.048 56.2162 139.627V139.612ZM71.2102 140.285C77.7636 140.285 90.2122 129.972 100.788 120.332C100.247 117.128 97.5702 115.241 93.8254 115.241C87.9302 115.241 80.1773 119.396 76.2862 122.204C69.3231 127.822 66.7778 132.239 66.7778 135.589C66.7778 138.398 68.2553 140.27 71.1955 140.27L71.2102 140.285Z" fill="#A39383"/>
<path d="M142.962 121.4C141.221 125.686 140.153 129.431 140.153 132.24C140.153 135.048 141.221 138.661 144.834 138.661C157.824 138.661 174.953 123.536 177.762 121.122C178.567 120.449 178.962 120.318 179.371 120.318C180.98 120.318 183.116 122.6 183.116 124.472C183.116 124.867 182.984 125.54 182.048 126.344C179.239 128.758 155.951 149.911 139.085 149.911C132.4 149.911 128.641 143.752 128.641 137.33C128.641 113.779 159.433 81.2457 185.793 55.0173C216.585 24.4882 247.1 3.61377 256.067 3.61377C257.939 3.61377 258.744 5.22287 258.744 7.35859C258.744 18.3298 238.396 38.6776 213.63 61.1758C191.147 81.6553 167.99 101.594 142.962 121.415V121.4ZM152.865 105.47C172.54 89.4082 191.542 72.4103 210.427 54.871C228.229 38.268 240.268 26.229 245.227 19.3976C245.9 18.4614 246.295 17.9202 246.295 17.5252C246.295 17.1302 246.032 16.984 245.622 16.984C244.949 16.984 244.145 17.2473 242.945 17.9202C238.659 20.2022 221.266 33.7186 192.61 61.4245C175.612 77.7496 162.227 92.4802 152.85 105.47H152.865Z" fill="#A39383"/>
<path d="M168.663 138.281C168.663 123.287 191.951 105.484 207.487 105.484C215.649 105.484 218.589 109.902 218.589 115.651C218.589 119.132 217.522 122.614 215.649 126.359C216.585 126.754 217.522 126.9 218.721 126.9C223.27 126.9 227.293 124.486 231.038 121.283C231.974 120.478 232.369 120.346 232.779 120.346C234.388 120.346 236.524 122.628 236.524 124.501C236.524 124.896 236.392 125.569 235.456 126.373C229.839 131.201 223.548 136.408 216.176 136.408C213.63 136.408 211.626 136.013 210.017 135.209C202.25 144.176 190.737 150.875 180.702 150.875C172.671 150.875 168.649 146.589 168.649 138.295L168.663 138.281ZM208.949 115.256C207.882 114.715 206.536 114.32 204.795 114.32C200.377 114.32 194.219 116.733 188.06 121.283C182.575 125.305 178.025 131.318 178.025 136.013C178.025 139.626 180.702 141.777 184.184 141.777C187.665 141.777 192.756 139.904 199.178 135.618C201.313 133.877 203.464 132.268 204.795 130.806C203.859 129.065 203.464 126.914 203.464 124.515C203.464 119.966 205.731 116.353 208.949 115.285V115.256Z" fill="#A39383"/>
<path d="M245.096 106.421C245.637 105.748 246.427 105.221 247.363 105.221C249.645 105.221 252.98 107.767 252.98 110.575C252.98 110.97 252.717 111.906 252.308 112.989C250.303 118.343 247.217 123.697 243.735 128.656C255.643 118.752 268.896 106.699 275.859 106.699C279.063 106.699 280.54 108.308 280.54 111.658C280.54 114.071 280.54 117.948 276.122 125.715C290.575 115.271 306.373 107.781 311.464 107.781C313.6 107.781 315.341 111.263 315.341 113.267C315.341 115.68 307.851 120.362 304.091 123.433C298.737 127.851 292.842 133.878 292.842 138.018C292.842 139.627 293.91 141.09 295.519 141.09C305.159 141.09 323.488 123.697 326.312 121.283C327.248 120.479 327.643 120.347 328.052 120.347C329.662 120.347 331.797 122.629 331.797 124.501C331.797 124.896 331.666 125.569 330.729 126.374C327.921 128.787 305.291 149.662 292.052 149.662C286.567 149.662 282.412 146.049 282.412 140.695C282.412 134.536 286.698 128.773 292.857 123.024C279.604 130.382 272.114 136.54 263.147 146.444C261.67 148.053 260.47 149.252 259.124 149.252C257.778 149.252 254.575 147.38 254.575 145.229C254.575 144.162 255.116 142.947 255.774 141.88C260.733 134.112 264.347 127.822 268.486 118.723C255.643 128.363 244.262 137.871 231.14 150.042C230.468 150.715 229.531 150.847 228.595 150.847C225.918 150.847 222.568 149.106 222.568 146.956C222.568 146.561 222.7 146.151 222.963 145.756C227.922 138.793 231.93 132.503 235.412 126.344C234.476 127.149 234.081 127.281 233.671 127.281C232.062 127.281 229.926 125.013 229.926 123.126C229.926 122.453 230.058 122.058 230.994 121.254C233.803 118.84 239.566 113.091 245.052 106.392L245.096 106.421Z" fill="#A39383"/>
<path d="M315.911 139.612C315.911 123.419 338.804 107.488 355.392 107.488C361.551 107.488 365.296 110.97 366.495 115.124L370.913 110.97C373.853 108.556 374.395 107.898 375.067 107.898C376.94 107.898 378.944 110.575 378.944 114.056C378.944 114.861 378.549 115.666 377.466 116.733C375.462 118.738 372.244 121.414 368.499 124.501C363.95 128.377 358.333 133.336 358.333 138.427C358.333 140.841 359.679 141.499 361.551 141.499C369.714 141.499 389.798 123.696 392.475 121.283C393.411 120.478 393.806 120.347 394.216 120.347C395.825 120.347 397.961 122.629 397.961 124.501C397.961 124.896 397.829 125.569 396.893 126.373C394.347 128.655 372.259 150.071 358.742 150.071C352.584 150.071 349.102 146.999 349.102 142.976C349.102 141.104 349.497 139.232 350.302 137.359C342.666 143.781 333.699 150.071 325.141 150.071C318.983 150.071 315.911 146.048 315.911 139.627V139.612ZM330.905 140.285C337.458 140.285 349.907 129.972 360.483 120.332C359.942 117.128 357.265 115.241 353.52 115.241C347.625 115.241 339.872 119.396 335.981 122.204C329.018 127.822 326.472 132.239 326.472 135.589C326.472 138.398 327.95 140.27 330.89 140.27L330.905 140.285Z" fill="#A39383"/>
<path d="M416.173 99.3257C418.718 99.3257 420.985 101.739 420.985 103.348C420.985 104.021 420.722 104.416 420.59 104.68C415.778 109.77 417.241 116.324 416.041 126.9C414.973 135.999 408.815 150.861 392.885 150.861C386.053 150.861 383.245 146.443 383.245 142.698C383.245 140.826 386.726 137.608 388.598 137.608C389.008 137.608 389.403 137.739 389.535 138.281C390.208 140.021 391.407 141.353 393.557 141.353C398.37 141.353 405.611 135.735 407.615 125.159C408.42 121.005 408.288 117.933 408.42 114.32C405.611 117.933 400.652 123.155 396.907 126.373C395.971 127.178 395.576 127.309 395.167 127.309C393.557 127.309 391.422 125.042 391.422 123.155C391.422 122.482 391.553 122.087 392.49 121.283C398.107 116.47 402.656 111.379 407.484 106.289C412.442 100.935 414.037 99.3257 416.187 99.3257H416.173Z" fill="#A39383"/>
<path d="M399.657 96.0928C399.277 96.3707 398.604 96.4731 398.224 96.4731C396.79 96.4731 395.562 94.9518 395.562 93.606C395.562 92.7429 396.044 92.2748 397.185 91.5142C399.95 89.9928 404.338 86.2772 405.962 84.083C405.479 83.5125 405.202 82.8396 405.202 81.5085C405.202 76.8421 410.16 71.02 415.017 71.02C417.211 71.02 418.63 72.2634 418.63 74.7356C418.63 82.3569 406.43 91.7043 399.657 96.0928Z" fill="#A39383"/>
</g>
<defs>
<clipPath id="clip0_258_55">
<rect width="421" height="214.186" fill="white"/>
</clipPath>
</defs>
</svg>
